<?xml version="1.0" encoding="UTF-8"?>
<svg id="Layer_1" data-name="Layer 1" xmlns="http://www.w3.org/2000/svg" viewBox="0 0 1080 1080">
  <defs>
    <style>
      .cls-1, .cls-2 {
        stroke-width: 0px;
      }

      .cls-2 {
        fill: #fff;
      }
    </style>
  </defs>
  <rect class="cls-1" x=".66" width="1080" height="1080"/>
  <path class="cls-2" d="m456.24,711.08l-178.54-278.89v278.89h-76.51v-393.1h95.37l163.56,260.04v-260.04h76.51v393.1h-80.39Z"/>
  <path class="cls-2" d="m937.85,503.88h-79.43c.23,3.54.35,7.2.35,10.92,0,85.41-53.76,125.29-118.1,125.29h-60.96v-251.17h61.54c28.97,0,55.68,8.19,76.29,25.02v-84.07c-22.35-7.84-47.09-11.9-73.51-11.9h-140.85v393.13h140.27c112,0,194.62-72.11,194.62-196.3,0-3.66-.06-7.32-.23-10.92Z"/>
  <path class="cls-2" d="m911.37,406.28l-63.23,49.64-30.6,24.04-60.03,47.15c-8.24,9.12-22.06,11.61-33.21,5.17-12.77-7.43-17.19-23.8-9.75-36.64,3.6-6.15,9.29-10.39,15.62-12.19v-.06l87.38-37.33,20.84-8.88,72.87-31.12c0,.06.06.12.12.23Z"/>
</svg>