<?xml version="1.0" encoding="UTF-8"?>
<svg id="Layer_1" data-name="Layer 1" xmlns="http://www.w3.org/2000/svg" viewBox="0 0 1080 1080">
  <defs>
    <style>
      .cls-1 {
        fill: #fff;
      }

      .cls-1, .cls-2 {
        stroke-width: 0px;
      }

      .cls-2 {
        fill: #9300d8;
      }
    </style>
  </defs>
  <rect class="cls-2" width="1080" height="1080"/>
  <path class="cls-1" d="m181.17,578.28l-58.56-91.48v91.48h-25.1v-128.94h31.28l53.65,85.3v-85.3h25.1v128.94h-26.37Z"/>
  <path class="cls-1" d="m247.18,444.43c8.37,0,14.91,6.73,14.91,15.09s-6.54,14.73-14.91,14.73-14.91-6.73-14.91-14.73,6.73-15.09,14.91-15.09Zm-12,133.85v-89.48h24.19v89.48h-24.19Z"/>
  <path class="cls-1" d="m300.65,577.37c1.64,9.82,9.46,16.92,20.92,16.92,15.28,0,23.82-7.64,23.82-24.92v-6.55c-3.64,5.82-12,11.46-24.92,11.46-23.82,0-41.65-18.37-41.65-43.47,0-23.64,17.09-43.65,41.65-43.65,14.19,0,22.37,6.18,25.46,12.18v-10.55h23.28v79.84c0,24.55-13.27,46.92-46.92,46.92-24.55,0-40.92-15.28-43.47-32.37l21.82-5.82Zm45.1-46.56c0-13.82-9.46-22.55-21.1-22.55s-21.46,8.73-21.46,22.55,8.91,22.73,21.46,22.73,21.1-8.91,21.1-22.73Z"/>
  <path class="cls-1" d="m417.95,578.28h-24.19v-131.67h24.19v49.65c5.82-6.91,15.64-9.82,24.19-9.82,22.73,0,33.28,15.82,33.28,35.46v56.38h-24.19v-52.19c0-10-4.91-17.82-16.55-17.82-10.18,0-16.18,7.64-16.73,17.46v52.56Z"/>
  <path class="cls-1" d="m529.79,488.8h18.01v21.46h-18.01v37.46c0,7.82,3.64,10.36,10.55,10.36,2.91,0,6.19-.37,7.46-.72v20c-2.18.91-6.55,2.19-13.64,2.19-17.46,0-28.37-10.37-28.37-27.65v-41.65h-16.19v-21.46h4.55c9.46,0,13.82-6.18,13.82-14.19v-12.55h21.82v26.74Z"/>
  <path class="cls-1" d="m679.4,510.32h-26.05c.08,1.16.11,2.36.11,3.58,0,28.02-17.64,41.1-38.74,41.1h-20v-82.39h20.19c9.5,0,18.26,2.69,25.03,8.21v-27.58c-7.33-2.57-15.45-3.9-24.11-3.9h-46.2v128.95h46.01c36.74,0,63.84-23.65,63.84-64.39,0-1.2-.02-2.4-.08-3.58Z"/>
  <path class="cls-1" d="m754.03,512.81c-2.73-.55-5.09-.73-7.27-.73-12.36,0-23.1,6-23.1,25.28v40.92h-24.18v-89.48h23.46v13.27c5.46-11.82,17.82-14,25.46-14,2,0,3.82.18,5.64.36v24.38Z"/>
  <path class="cls-1" d="m783.12,444.43c8.37,0,14.92,6.73,14.92,15.09s-6.55,14.73-14.92,14.73-14.91-6.73-14.91-14.73,6.73-15.09,14.91-15.09Zm-12,133.85v-89.48h24.18v89.48h-24.18Z"/>
  <path class="cls-1" d="m870.79,578.28h-24.19l-36.55-89.48h26.55l22.19,60.02,21.28-60.02h25.46l-34.73,89.48Z"/>
  <path class="cls-1" d="m997.72,552.64c-4.55,15.46-18.73,28.37-40.74,28.37-24.55,0-46.2-17.64-46.2-47.83,0-28.56,21.1-47.1,44.01-47.1,27.65,0,44.2,17.64,44.2,46.37,0,3.46-.37,7.09-.37,7.46h-64.02c.55,11.83,10.55,20.37,22.55,20.37,11.27,0,17.46-5.64,20.37-13.64l20.19,6Zm-22.55-29.28c-.36-8.91-6.18-17.64-20-17.64-12.55,0-19.46,9.45-20.01,17.64h40.01Z"/>
  <path class="cls-1" d="m670.94,478.11l-.23.19s-.04-.06-.04-.08l.27-.11Z"/>
  <path class="cls-1" d="m670.71,478.3l-20.74,16.28-10.04,7.88-19.69,15.46c-2.7,2.99-7.24,3.81-10.89,1.69-4.19-2.44-5.64-7.81-3.2-12.02,1.18-2.02,3.05-3.41,5.12-4v-.02l28.66-12.25,6.84-2.91,23.9-10.21s.02.04.04.08Z"/>
  <path class="cls-1" d="m670.94,478.11l-.23.19s-.04-.06-.04-.08l.27-.11Z"/>
</svg>